
          <svg data-logo="logo" xmlns="http://www.w3.org/2000/svg" viewBox="0 0 146 33">
            <g id="logogram" transform="translate(0, 16.5) rotate(0)"></g>
            <g id="logotype" transform="translate(0, 1)"><path fill="#ffffff" d="M32.27 30.96L21.04 18.32L29.72 18.32L41.13 30.96L32.27 30.96ZM25.55 29.56L25.55 29.56Q20.90 29.56 17.38 27.84Q13.86 26.13 11.92 23.05Q9.98 19.97 9.98 15.87L9.98 15.87Q9.98 11.78 11.92 8.70Q13.86 5.62 17.38 3.90Q20.90 2.19 25.55 2.19L25.55 2.19Q30.24 2.19 33.74 3.90Q37.24 5.62 39.20 8.70Q41.16 11.78 41.16 15.87L41.16 15.87Q41.16 19.97 39.20 23.05Q37.24 26.13 33.74 27.84Q30.24 29.56 25.55 29.56ZM25.55 23.09L25.55 23.09Q28.11 23.09 29.96 22.21Q31.82 21.34 32.81 19.73Q33.81 18.11 33.81 15.87L33.81 15.87Q33.81 13.63 32.81 12.02Q31.82 10.41 29.96 9.54Q28.11 8.66 25.55 8.66L25.55 8.66Q23.03 8.66 21.18 9.54Q19.32 10.41 18.31 12.02Q17.29 13.63 17.29 15.87L17.29 15.87Q17.29 18.11 18.31 19.73Q19.32 21.34 21.18 22.21Q23.03 23.09 25.55 23.09ZM44.35 19.59L44.35 13.95L53.55 13.95L53.55 19.59L44.35 19.59ZM56.70 20.39L56.70 20.39L64.09 20.39Q64.26 21.48 65.10 22.28Q65.94 23.09 67.36 23.52Q68.78 23.96 70.70 23.96L70.70 23.96Q73.36 23.96 74.90 23.28Q76.44 22.59 76.44 21.27L76.44 21.27Q76.44 20.25 75.57 19.69Q74.69 19.13 72.21 18.88L72.21 18.88L67.31 18.43Q61.88 17.94 59.43 15.96Q56.98 13.98 56.98 10.63L56.98 10.63Q56.98 7.89 58.57 6.00Q60.17 4.11 63.05 3.15Q65.94 2.19 69.79 2.19L69.79 2.19Q73.57 2.19 76.51 3.26Q79.45 4.32 81.18 6.28Q82.92 8.24 83.06 10.83L83.06 10.83L75.71 10.83Q75.57 9.89 74.81 9.21Q74.06 8.52 72.77 8.16Q71.47 7.79 69.65 7.79L69.65 7.79Q67.20 7.79 65.77 8.44Q64.33 9.08 64.33 10.34L64.33 10.34Q64.33 11.25 65.19 11.81Q66.05 12.38 68.29 12.58L68.29 12.58L73.50 13.11Q77.25 13.46 79.49 14.32Q81.73 15.17 82.74 16.68Q83.76 18.18 83.76 20.42L83.76 20.42Q83.76 23.19 82.11 25.24Q80.47 27.29 77.49 28.42Q74.52 29.56 70.56 29.56L70.56 29.56Q66.50 29.56 63.40 28.42Q60.31 27.29 58.56 25.20Q56.81 23.12 56.70 20.39ZM101.82 29.56L101.82 29.56Q97.16 29.56 93.64 27.84Q90.13 26.13 88.18 23.05Q86.24 19.97 86.24 15.87L86.24 15.87Q86.24 11.78 88.18 8.70Q90.13 5.62 93.64 3.90Q97.16 2.19 101.82 2.19L101.82 2.19Q106.51 2.19 110.01 3.90Q113.51 5.62 115.47 8.70Q117.43 11.78 117.43 15.87L117.43 15.87Q117.43 19.97 115.47 23.05Q113.51 26.13 110.01 27.84Q106.51 29.56 101.82 29.56ZM101.82 23.09L101.82 23.09Q104.37 23.09 106.23 22.21Q108.08 21.34 109.08 19.73Q110.08 18.11 110.08 15.87L110.08 15.87Q110.08 13.63 109.08 12.02Q108.08 10.41 106.23 9.54Q104.37 8.66 101.82 8.66L101.82 8.66Q99.30 8.66 97.44 9.54Q95.59 10.41 94.57 12.02Q93.56 13.63 93.56 15.87L93.56 15.87Q93.56 18.11 94.57 19.73Q95.59 21.34 97.44 22.21Q99.30 23.09 101.82 23.09ZM121.17 2.75L128.42 2.75L128.42 25.78L125.16 22.56L144.80 22.56L144.80 29L121.17 29L121.17 2.75Z"/></g>
            
          </svg>
        